<svg xmlns="http://www.w3.org/2000/svg" viewBox="0 0 32 32" id="timer"><circle cx="18" cy="18" r="7" fill="#ede7f6"></circle><path fill="#b39ddb" d="M18,30a12,12,0,0,1-5-1.09,1,1,0,0,1,.84-1.82A10,10,0,1,0,9.62,12.55a1,1,0,1,1-1.68-1.1A12,12,0,1,1,18,30Z"></path><path fill="#b39ddb" d="M19 2H17a3 3 0 0 0-3 3V7a1 1 0 0 0 1 1h6a1 1 0 0 0 1-1V5A3 3 0 0 0 19 2zM23.78 13.38a1 1 0 0 0-1.4-.16l-2.81 2.24A2.89 2.89 0 0 0 18 15a3 3 0 1 0 3 3 2.93 2.93 0 0 0-.18-1l2.8-2.24A1 1 0 0 0 23.78 13.38zM11 15H5a1 1 0 0 0 0 2h6a1 1 0 0 0 0-2zM11 19H3a1 1 0 0 0 0 2h8a1 1 0 0 0 0-2zM11 23H5a1 1 0 0 0 0 2h6a1 1 0 0 0 0-2z"></path></svg>